<svg width="140" height="40" viewBox="0 0 140 40" fill="none" xmlns="http://www.w3.org/2000/svg">
  <!-- Geometric shape elements -->
  <path d="M6 8C6 6.89543 6.89543 6 8 6H18C19.1046 6 20 6.89543 20 8V32C20 33.1046 19.1046 34 18 34H8C6.89543 34 6 33.1046 6 32V8Z" fill="#1331D2" />
  <path d="M24 8C24 6.89543 24.8954 6 26 6H36C37.1046 6 38 6.89543 38 8V18C38 19.1046 37.1046 20 36 20H26C24.8954 20 24 19.1046 24 18V8Z" fill="#1331D2" opacity="0.8" />
  <path d="M24 24C24 22.8954 24.8954 22 26 22H36C37.1046 22 38 22.8954 38 24V32C38 33.1046 37.1046 34 36 34H26C24.8954 34 24 33.1046 24 32V24Z" fill="#59D5E0" />
  
  <!-- Text as paths -->
  <!-- "lean" -->
  <path d="M47.4219 24H44.7969V15.125H47.4219V24ZM44.6406 12.5938C44.6406 12.1771 44.7865 11.8385 45.0781 11.5781C45.3802 11.3177 45.7812 11.1875 46.2812 11.1875C46.776 11.1875 47.1745 11.3177 47.4766 11.5781C47.7786 11.8385 47.9297 12.1771 47.9297 12.5938C47.9297 13.0208 47.7734 13.3646 47.4609 13.625C47.1589 13.8854 46.763 14.0156 46.2734 14.0156C45.7839 14.0156 45.3854 13.8854 45.0781 13.625C44.7865 13.3646 44.6406 13.0208 44.6406 12.5938Z" fill="white"/>
  <path d="M54.4531 20.0781C54.4531 19.4844 54.276 19.0312 53.9219 18.7188C53.5677 18.3958 53.0573 18.2344 52.3906 18.2344C51.8802 18.2344 51.4167 18.3281 51 18.5156C50.5833 18.7031 50.2552 18.9635 50.0156 19.2969L48.5625 17.8594C48.9792 17.3073 49.5417 16.8802 50.25 16.5781C50.9583 16.276 51.7448 16.125 52.6094 16.125C53.901 16.125 54.9115 16.4583 55.6406 17.125C56.3802 17.7917 56.75 18.7448 56.75 19.9844V24H54.5938V23.1094C54.3438 23.4219 54.0052 23.6719 53.5781 23.8594C53.151 24.0365 52.6458 24.125 52.0625 24.125C51.4792 24.125 50.9583 24.0208 50.5 23.8125C50.0417 23.6042 49.6823 23.3177 49.4219 22.9531C49.1615 22.5885 49.0312 22.1771 49.0312 21.7188C49.0312 21.2604 49.1615 20.849 49.4219 20.4844C49.6823 20.1198 50.0781 19.8333 50.6094 19.625C51.1406 19.4167 51.8125 19.3125 52.625 19.3125H54.4531V20.0781ZM54.4531 21.125V20.5469H52.8906C51.974 20.5469 51.5156 20.8333 51.5156 21.4062C51.5156 21.6771 51.6302 21.8958 51.8594 22.0625C52.0885 22.2292 52.4062 22.3125 52.8125 22.3125C53.2188 22.3125 53.5677 22.1979 53.8594 21.9688C54.1615 21.7292 54.3333 21.4427 54.4531 21.125Z" fill="white"/>
  <path d="M63.1719 16.125C63.776 16.125 64.3177 16.2396 64.7969 16.4688C65.2865 16.6979 65.6823 17.0208 65.9844 17.4375C66.2865 17.8542 66.4531 18.3438 66.4844 18.9062V24H63.8594V19.3594C63.8594 18.8281 63.7083 18.4219 63.4062 18.1406C63.1042 17.8594 62.6979 17.7188 62.1875 17.7188C61.8333 17.7188 61.5156 17.7969 61.2344 17.9531C60.9635 18.099 60.7448 18.3125 60.5781 18.5938C60.4219 18.875 60.3438 19.2135 60.3438 19.6094V24H57.7188V16.25H60.3438V17.2812C60.5625 16.9062 60.8698 16.6198 61.2656 16.4219C61.6615 16.224 62.1042 16.125 62.5938 16.125H63.1719Z" fill="white"/>
  
  <!-- "tech" -->
  <path d="M69.9531 24H67.3281V11.375H69.9531V17.2812C70.1615 16.9062 70.4635 16.6198 70.8594 16.4219C71.2552 16.224 71.6979 16.125 72.1875 16.125H72.7656C73.3698 16.125 73.9115 16.2396 74.3906 16.4688C74.8802 16.6979 75.276 17.0208 75.5781 17.4375C75.8802 17.8542 76.0469 18.3438 76.0781 18.9062V24H73.4531V19.3594C73.4531 18.8281 73.3021 18.4219 73 18.1406C72.6979 17.8594 72.2917 17.7188 71.7812 17.7188C71.4271 17.7188 71.1094 17.7969 70.8281 17.9531C70.5573 18.099 70.3385 18.3125 70.1719 18.5938C70.0156 18.875 69.9375 19.2135 69.9375 19.6094L69.9531 24Z" fill="white"/>
  <path d="M83.4531 20.0781C83.4531 19.4844 83.276 19.0312 82.9219 18.7188C82.5677 18.3958 82.0573 18.2344 81.3906 18.2344C80.8802 18.2344 80.4167 18.3281 80 18.5156C79.5833 18.7031 79.2552 18.9635 79.0156 19.2969L77.5625 17.8594C77.9792 17.3073 78.5417 16.8802 79.25 16.5781C79.9583 16.276 80.7448 16.125 81.6094 16.125C82.901 16.125 83.9115 16.4583 84.6406 17.125C85.3802 17.7917 85.75 18.7448 85.75 19.9844V24H83.5938V23.1094C83.3438 23.4219 83.0052 23.6719 82.5781 23.8594C82.151 24.0365 81.6458 24.125 81.0625 24.125C80.4792 24.125 79.9583 24.0208 79.5 23.8125C79.0417 23.6042 78.6823 23.3177 78.4219 22.9531C78.1615 22.5885 78.0312 22.1771 78.0312 21.7188C78.0312 21.2604 78.1615 20.849 78.4219 20.4844C78.6823 20.1198 79.0781 19.8333 79.6094 19.625C80.1406 19.4167 80.8125 19.3125 81.625 19.3125H83.4531V20.0781ZM83.4531 21.125V20.5469H81.8906C80.974 20.5469 80.5156 20.8333 80.5156 21.4062C80.5156 21.6771 80.6302 21.8958 80.8594 22.0625C81.0885 22.2292 81.4062 22.3125 81.8125 22.3125C82.2188 22.3125 82.5677 22.1979 82.8594 21.9688C83.1615 21.7292 83.3333 21.4427 83.4531 21.125Z" fill="white"/>
  <path d="M91.8281 24.125C90.9531 24.125 90.1823 23.9375 89.5156 23.5625C88.849 23.1875 88.3229 22.6562 87.9375 21.9688C87.5625 21.2812 87.375 20.4844 87.375 19.5781C87.375 18.6719 87.5625 17.8802 87.9375 17.2031C88.3229 16.5156 88.849 15.9844 89.5156 15.6094C90.1823 15.2344 90.9531 15.0469 91.8281 15.0469C92.7135 15.0469 93.4844 15.2344 94.1406 15.6094C94.8073 15.9844 95.3281 16.5156 95.7031 17.2031C96.0885 17.8802 96.2812 18.6719 96.2812 19.5781C96.2812 20.4844 96.0885 21.2812 95.7031 21.9688C95.3281 22.6562 94.8073 23.1875 94.1406 23.5625C93.4844 23.9375 92.7135 24.125 91.8281 24.125ZM91.8281 22.2188C92.2656 22.2188 92.6615 22.1198 93.0156 21.9219C93.3698 21.7135 93.651 21.4167 93.8594 21.0312C94.0677 20.6458 94.1719 20.1667 94.1719 19.5938C94.1719 19.0208 94.0677 18.5469 93.8594 18.1719C93.651 17.7865 93.3698 17.4948 93.0156 17.2969C92.6615 17.099 92.2656 17 91.8281 17C91.3906 17 90.9948 17.099 90.6406 17.2969C90.2865 17.4948 90.0052 17.7865 89.7969 18.1719C89.5885 18.5469 89.4844 19.0208 89.4844 19.5938C89.4844 20.1667 89.5885 20.6458 89.7969 21.0312C90.0052 21.4167 90.2865 21.7135 90.6406 21.9219C90.9948 22.1198 91.3906 22.2188 91.8281 22.2188Z" fill="white"/>
  
  <!-- "co." -->
  <path d="M103.297 20.0781C103.297 19.4844 103.12 19.0312 102.766 18.7188C102.411 18.3958 101.901 18.2344 101.234 18.2344C100.724 18.2344 100.26 18.3281 99.8438 18.5156C99.4271 18.7031 99.099 18.9635 98.8594 19.2969L97.4062 17.8594C97.8229 17.3073 98.3854 16.8802 99.0938 16.5781C99.8021 16.276 100.589 16.125 101.453 16.125C102.745 16.125 103.755 16.4583 104.484 17.125C105.224 17.7917 105.594 18.7448 105.594 19.9844V24H103.438V23.1094C103.188 23.4219 102.849 23.6719 102.422 23.8594C101.995 24.0365 101.49 24.125 100.906 24.125C100.323 24.125 99.8021 24.0208 99.3438 23.8125C98.8854 23.6042 98.526 23.3177 98.2656 22.9531C98.0052 22.5885 97.875 22.1771 97.875 21.7188C97.875 21.2604 98.0052 20.849 98.2656 20.4844C98.526 20.1198 98.9219 19.8333 99.4531 19.625C99.9844 19.4167 100.656 19.3125 101.469 19.3125H103.297V20.0781ZM103.297 21.125V20.5469H101.734C100.818 20.5469 100.359 20.8333 100.359 21.4062C100.359 21.6771 100.474 21.8958 100.703 22.0625C100.932 22.2292 101.25 22.3125 101.656 22.3125C102.062 22.3125 102.411 22.1979 102.703 21.9688C103.005 21.7292 103.177 21.4427 103.297 21.125Z" fill="#59D5E0"/>
  <path d="M110.859 24.125C109.984 24.125 109.214 23.9375 108.547 23.5625C107.88 23.1875 107.354 22.6562 106.969 21.9688C106.594 21.2812 106.406 20.4844 106.406 19.5781C106.406 18.6719 106.594 17.8802 106.969 17.2031C107.354 16.5156 107.88 15.9844 108.547 15.6094C109.214 15.2344 109.984 15.0469 110.859 15.0469C111.745 15.0469 112.516 15.2344 113.172 15.6094C113.839 15.9844 114.359 16.5156 114.734 17.2031C115.12 17.8802 115.312 18.6719 115.312 19.5781C115.312 20.4844 115.12 21.2812 114.734 21.9688C114.359 22.6562 113.839 23.1875 113.172 23.5625C112.516 23.9375 111.745 24.125 110.859 24.125ZM110.859 22.2188C111.297 22.2188 111.693 22.1198 112.047 21.9219C112.401 21.7135 112.682 21.4167 112.891 21.0312C113.099 20.6458 113.203 20.1667 113.203 19.5938C113.203 19.0208 113.099 18.5469 112.891 18.1719C112.682 17.7865 112.401 17.4948 112.047 17.2969C111.693 17.099 111.297 17 110.859 17C110.422 17 110.026 17.099 109.672 17.2969C109.318 17.4948 109.036 17.7865 108.828 18.1719C108.62 18.5469 108.516 19.0208 108.516 19.5938C108.516 20.1667 108.62 20.6458 108.828 21.0312C109.036 21.4167 109.318 21.7135 109.672 21.9219C110.026 22.1198 110.422 22.2188 110.859 22.2188Z" fill="#59D5E0"/>
  <path d="M117.25 24V22.375C117.688 22.375 118.021 22.3021 118.25 22.1562C118.479 22.0104 118.625 21.7344 118.688 21.3281L118.719 21.1562V16.25H121.344V21.0312C121.344 22.1458 121.052 22.9844 120.469 23.5469C119.885 24.1094 118.797 24.2188 117.875 24.1875L117.25 24Z" fill="#59D5E0"/>
</svg> 