<svg width="40" height="40" viewBox="0 0 40 40" fill="none" xmlns="http://www.w3.org/2000/svg">
  <!-- Geometric shape elements - white color -->
  <path d="M6 8C6 6.89543 6.89543 6 8 6H18C19.1046 6 20 6.89543 20 8V32C20 33.1046 19.1046 34 18 34H8C6.89543 34 6 33.1046 6 32V8Z" fill="white" />
  <path d="M24 8C24 6.89543 24.8954 6 26 6H36C37.1046 6 38 6.89543 38 8V18C38 19.1046 37.1046 20 36 20H26C24.8954 20 24 19.1046 24 18V8Z" fill="white" opacity="0.9" />
  <path d="M24 24C24 22.8954 24.8954 22 26 22H36C37.1046 22 38 22.8954 38 24V32C38 33.1046 37.1046 34 36 34H26C24.8954 34 24 33.1046 24 32V24Z" fill="#59D5E0" />
</svg> 